<svg width="20" height="20" viewBox="0 0 20 20" fill="none" xmlns="http://www.w3.org/2000/svg">
<path d="M9.80474 -0.00012207C7.14216 -0.00012207 6.80801 0.0115203 5.76226 0.0591101C4.71855 0.106904 4.00613 0.272141 3.38276 0.514584C2.73795 0.764992 2.19097 1.09996 1.64604 1.6451C1.10069 2.19003 0.765727 2.73701 0.514501 3.38162C0.271446 4.00519 0.106005 4.71781 0.0590277 5.76111C0.0122548 6.80686 0 7.14122 0 9.8038C0 12.4664 0.0118466 12.7995 0.0592322 13.8453C0.107231 14.889 0.272467 15.6014 0.514706 16.2248C0.765319 16.8696 1.10029 17.4165 1.64542 17.9615C2.19016 18.5068 2.73713 18.8426 3.38154 19.093C4.00531 19.3355 4.71793 19.5007 5.76144 19.5485C6.80719 19.5961 7.14114 19.6077 9.80351 19.6077C12.4663 19.6077 12.7994 19.5961 13.8452 19.5485C14.8889 19.5007 15.6021 19.3355 16.2259 19.093C16.8705 18.8426 17.4167 18.5068 17.9614 17.9615C18.5067 17.4165 18.8417 16.8696 19.0929 16.225C19.3339 15.6014 19.4994 14.8888 19.5484 13.8455C19.5954 12.7997 19.6076 12.4664 19.6076 9.8038C19.6076 7.14122 19.5954 6.80707 19.5484 5.76132C19.4994 4.71761 19.3339 4.00519 19.0929 3.38182C18.8417 2.73701 18.5067 2.19003 17.9614 1.6451C17.4161 1.09976 16.8707 0.764788 16.2253 0.514584C15.6003 0.272141 14.8875 0.106904 13.8438 0.0591101C12.798 0.0115203 12.4651 -0.00012207 9.80167 -0.00012207H9.80474ZM8.92525 1.76663C9.18628 1.76622 9.47753 1.76663 9.80474 1.76663C12.4224 1.76663 12.7326 1.77602 13.7663 1.823C14.7222 1.86671 15.241 2.02643 15.5866 2.16062C16.0441 2.33832 16.3703 2.55074 16.7132 2.89387C17.0564 3.23701 17.2688 3.56381 17.4469 4.02132C17.5811 4.3665 17.741 4.88529 17.7845 5.84118C17.8315 6.87467 17.8417 7.18513 17.8417 9.80155C17.8417 12.418 17.8315 12.7284 17.7845 13.7619C17.7408 14.7178 17.5811 15.2366 17.4469 15.5818C17.2692 16.0393 17.0564 16.3651 16.7132 16.708C16.3701 17.0511 16.0443 17.2636 15.5866 17.4413C15.2414 17.5761 14.7222 17.7354 13.7663 17.7791C12.7328 17.8261 12.4224 17.8363 9.80474 17.8363C7.18689 17.8363 6.87663 17.8261 5.84314 17.7791C4.88726 17.735 4.36846 17.5752 4.02267 17.4411C3.56516 17.2634 3.23836 17.0509 2.89522 16.7078C2.55208 16.3647 2.33967 16.0387 2.16156 15.581C2.02737 15.2358 1.86744 14.717 1.82394 13.7611C1.77696 12.7276 1.76757 12.4172 1.76757 9.7991C1.76757 7.18105 1.77696 6.87222 1.82394 5.83873C1.86765 4.88284 2.02737 4.36405 2.16156 4.01846C2.33926 3.56095 2.55208 3.23415 2.89522 2.89101C3.23836 2.54788 3.56516 2.33546 4.02267 2.15735C4.36826 2.02255 4.88726 1.86324 5.84314 1.81932C6.74755 1.77847 7.09804 1.76622 8.92525 1.76418V1.76663ZM15.038 3.39449C14.3885 3.39449 13.8615 3.92083 13.8615 4.57055C13.8615 5.22006 14.3885 5.74702 15.038 5.74702C15.6875 5.74702 16.2145 5.22006 16.2145 4.57055C16.2145 3.92104 15.6875 3.39408 15.038 3.39408V3.39449ZM9.80474 4.76908C7.02431 4.76908 4.77002 7.02337 4.77002 9.8038C4.77002 12.5842 7.02431 14.8375 9.80474 14.8375C12.5852 14.8375 14.8386 12.5842 14.8386 9.8038C14.8386 7.02337 12.585 4.76908 9.80453 4.76908H9.80474ZM9.80474 6.53583C11.6095 6.53583 13.0727 7.99886 13.0727 9.8038C13.0727 11.6085 11.6095 13.0718 9.80474 13.0718C7.9998 13.0718 6.53677 11.6085 6.53677 9.8038C6.53677 7.99886 7.9998 6.53583 9.80474 6.53583V6.53583Z" fill="white"/>
</svg>
