<svg width="11" height="22" viewBox="0 0 11 22" fill="none" xmlns="http://www.w3.org/2000/svg">
<path d="M3.84177 6.61377L3.84177 16.5602C3.84177 16.937 3.99147 17.2984 4.25794 17.5649C4.52441 17.8314 4.88582 17.9811 5.26266 17.9811C5.63951 17.9811 6.00092 17.8314 6.26739 17.5649C6.53386 17.2984 6.68356 16.937 6.68356 16.5602L6.68356 3.77194C6.68356 2.24104 5.41123 1 3.84174 1C2.27224 1 0.999911 2.24104 0.999911 3.77194L0.999911 16.7373C0.999911 17.8678 1.44902 18.9521 2.24844 19.7515C3.04786 20.5509 4.1321 21 5.26265 21C6.3932 21 7.47744 20.5509 8.27686 19.7515C9.07628 18.9521 9.52539 17.8678 9.52539 16.7373L9.52539 6.79087" stroke="#0154D4" stroke-width="1.5" stroke-linecap="round" stroke-linejoin="round"/>
</svg>
