<svg width="20" height="20" viewBox="0 0 20 20" fill="none" xmlns="http://www.w3.org/2000/svg">
<path d="M9.80474 0C7.14216 0 6.80801 0.0116423 5.76226 0.0592322C4.71855 0.107026 4.00613 0.272263 3.38276 0.514706C2.73795 0.765114 2.19097 1.10008 1.64604 1.64522C1.10069 2.19016 0.765727 2.73713 0.514501 3.38174C0.271446 4.00531 0.106005 4.71793 0.0590277 5.76123C0.0122548 6.80699 0 7.14134 0 9.80392C0 12.4665 0.0118466 12.7996 0.0592322 13.8454C0.107231 14.8891 0.272467 15.6015 0.514706 16.2249C0.765319 16.8697 1.10029 17.4167 1.64542 17.9616C2.19016 18.5069 2.73713 18.8427 3.38154 19.0931C4.00531 19.3356 4.71793 19.5008 5.76144 19.5486C6.80719 19.5962 7.14114 19.6078 9.80351 19.6078C12.4663 19.6078 12.7994 19.5962 13.8452 19.5486C14.8889 19.5008 15.6021 19.3356 16.2259 19.0931C16.8705 18.8427 17.4167 18.5069 17.9614 17.9616C18.5067 17.4167 18.8417 16.8697 19.0929 16.2251C19.3339 15.6015 19.4994 14.8889 19.5484 13.8456C19.5954 12.7998 19.6076 12.4665 19.6076 9.80392C19.6076 7.14134 19.5954 6.80719 19.5484 5.76144C19.4994 4.71773 19.3339 4.00531 19.0929 3.38194C18.8417 2.73713 18.5067 2.19016 17.9614 1.64522C17.4161 1.09988 16.8707 0.76491 16.2253 0.514706C15.6003 0.272263 14.8875 0.107026 13.8438 0.0592322C12.798 0.0116423 12.4651 0 9.80167 0H9.80474ZM8.92525 1.76675C9.18628 1.76634 9.47753 1.76675 9.80474 1.76675C12.4224 1.76675 12.7326 1.77614 13.7663 1.82312C14.7222 1.86683 15.241 2.02655 15.5866 2.16074C16.0441 2.33844 16.3703 2.55086 16.7132 2.89399C17.0564 3.23713 17.2688 3.56393 17.4469 4.02145C17.5811 4.36663 17.741 4.88542 17.7845 5.8413C17.8315 6.8748 17.8417 7.18525 17.8417 9.80167C17.8417 12.4181 17.8315 12.7286 17.7845 13.7621C17.7408 14.7179 17.5811 15.2367 17.4469 15.5819C17.2692 16.0394 17.0564 16.3652 16.7132 16.7081C16.3701 17.0513 16.0443 17.2637 15.5866 17.4414C15.2414 17.5762 14.7222 17.7355 13.7663 17.7792C12.7328 17.8262 12.4224 17.8364 9.80474 17.8364C7.18689 17.8364 6.87663 17.8262 5.84314 17.7792C4.88726 17.7351 4.36846 17.5754 4.02267 17.4412C3.56516 17.2635 3.23836 17.0511 2.89522 16.7079C2.55208 16.3648 2.33967 16.0388 2.16156 15.5811C2.02737 15.2359 1.86744 14.7171 1.82394 13.7612C1.77696 12.7277 1.76757 12.4173 1.76757 9.79922C1.76757 7.18117 1.77696 6.87235 1.82394 5.83885C1.86765 4.88297 2.02737 4.36417 2.16156 4.01859C2.33926 3.56107 2.55208 3.23427 2.89522 2.89114C3.23836 2.548 3.56516 2.33558 4.02267 2.15748C4.36826 2.02267 4.88726 1.86336 5.84314 1.81944C6.74755 1.77859 7.09804 1.76634 8.92525 1.7643V1.76675ZM15.038 3.39461C14.3885 3.39461 13.8615 3.92096 13.8615 4.57067C13.8615 5.22018 14.3885 5.74714 15.038 5.74714C15.6875 5.74714 16.2145 5.22018 16.2145 4.57067C16.2145 3.92116 15.6875 3.3942 15.038 3.3942V3.39461ZM9.80474 4.7692C7.02431 4.7692 4.77002 7.02349 4.77002 9.80392C4.77002 12.5844 7.02431 14.8376 9.80474 14.8376C12.5852 14.8376 14.8386 12.5844 14.8386 9.80392C14.8386 7.02349 12.585 4.7692 9.80453 4.7692H9.80474ZM9.80474 6.53595C11.6095 6.53595 13.0727 7.99898 13.0727 9.80392C13.0727 11.6087 11.6095 13.0719 9.80474 13.0719C7.9998 13.0719 6.53677 11.6087 6.53677 9.80392C6.53677 7.99898 7.9998 6.53595 9.80474 6.53595Z" fill="white"/>
</svg>
