<svg width="33" height="33" viewBox="0 0 33 33" fill="none" xmlns="http://www.w3.org/2000/svg">
<path fill-rule="evenodd" clip-rule="evenodd" d="M32.9998 16.5064C32.9998 7.40823 25.5917 -0.000244141 16.5067 -0.000244141C7.42187 -0.000244141 -0.000205652 7.40803 4.27377e-09 16.5064C4.27377e-09 25.5777 7.42187 32.9998 16.5067 32.9998C25.5915 32.9998 32.9998 25.5777 32.9998 16.5064ZM30.9048 16.5067C30.9048 8.57078 24.4288 2.0952 16.5067 2.0952C8.58439 2.0952 2.10903 8.57078 2.10903 16.5065C2.10903 24.4288 8.58439 30.8909 16.5067 30.8909C24.429 30.8909 30.9048 24.429 30.9048 16.5067ZM12.0318 22.1574L6.86747 8.76003C7.84095 7.55693 9.01707 6.54289 10.3555 5.77226L13.9918 15.79H19.1021L22.725 5.81304C23.9689 6.5445 25.076 7.48679 25.9968 8.59775L20.7783 22.1574L18.8859 17.2635H13.9244L12.0318 22.1574ZM22.198 27.4705L28.0791 12.1263C28.5927 13.4917 28.8629 14.9654 28.8629 16.5067C28.8629 21.2653 26.1459 25.402 22.198 27.4705ZM19.5892 28.1598L19.6294 28.4707C18.6291 28.7278 17.5881 28.8628 16.5067 28.8628C15.3575 28.8628 14.249 28.714 13.1946 28.4168L13.2079 28.1598L16.3984 19.8861L19.5892 28.1598ZM4.83979 12.3967L10.5717 27.3352C6.73238 25.2395 4.13671 21.157 4.13671 16.5065C4.13671 15.0599 4.38013 13.681 4.83979 12.3967ZM19.6701 4.54198C18.6561 4.27178 17.5881 4.13648 16.5067 4.13648C15.4623 4.1352 14.4219 4.26696 13.4108 4.52859L16.5473 13.1807L19.6701 4.54198Z" fill="#295CA7"/>
</svg>
